<svg aria-hidden="true" style="position: absolute; width: 0; height: 0; overflow: hidden;" version="1.1" xmlns="http://www.w3.org/2000/svg" xmlns:xlink="http://www.w3.org/1999/xlink">
<defs>
<symbol id="icon-plus-circle" viewBox="0 0 24 28">
<path d="M19 15v-2c0-0.547-0.453-1-1-1h-4v-4c0-0.547-0.453-1-1-1h-2c-0.547 0-1 0.453-1 1v4h-4c-0.547 0-1 0.453-1 1v2c0 0.547 0.453 1 1 1h4v4c0 0.547 0.453 1 1 1h2c0.547 0 1-0.453 1-1v-4h4c0.547 0 1-0.453 1-1zM24 14c0 6.625-5.375 12-12 12s-12-5.375-12-12 5.375-12 12-12 12 5.375 12 12z"></path>
</symbol>
<symbol id="icon-file-text-o" viewBox="0 0 24 28">
<path d="M22.937 5.938c0.578 0.578 1.062 1.734 1.062 2.562v18c0 0.828-0.672 1.5-1.5 1.5h-21c-0.828 0-1.5-0.672-1.5-1.5v-25c0-0.828 0.672-1.5 1.5-1.5h14c0.828 0 1.984 0.484 2.562 1.062zM16 2.125v5.875h5.875c-0.094-0.266-0.234-0.531-0.344-0.641l-4.891-4.891c-0.109-0.109-0.375-0.25-0.641-0.344zM22 26v-16h-6.5c-0.828 0-1.5-0.672-1.5-1.5v-6.5h-12v24h20zM6 12.5c0-0.281 0.219-0.5 0.5-0.5h11c0.281 0 0.5 0.219 0.5 0.5v1c0 0.281-0.219 0.5-0.5 0.5h-11c-0.281 0-0.5-0.219-0.5-0.5v-1zM17.5 16c0.281 0 0.5 0.219 0.5 0.5v1c0 0.281-0.219 0.5-0.5 0.5h-11c-0.281 0-0.5-0.219-0.5-0.5v-1c0-0.281 0.219-0.5 0.5-0.5h11zM17.5 20c0.281 0 0.5 0.219 0.5 0.5v1c0 0.281-0.219 0.5-0.5 0.5h-11c-0.281 0-0.5-0.219-0.5-0.5v-1c0-0.281 0.219-0.5 0.5-0.5h11z"></path>
</symbol>
<symbol id="icon-arrows" viewBox="0 0 24 28">

		<path d="M135.899,167.877c1.902,1.902,4.093,2.851,6.567,2.851s4.661-0.948,6.562-2.851L282.082,34.829
			c1.902-1.903,2.847-4.093,2.847-6.567s-0.951-4.665-2.847-6.567L267.808,7.417c-1.902-1.903-4.093-2.853-6.57-2.853
			c-2.471,0-4.661,0.95-6.563,2.853L142.466,119.622L30.262,7.417c-1.903-1.903-4.093-2.853-6.567-2.853
			c-2.475,0-4.665,0.95-6.567,2.853L2.856,21.695C0.95,23.597,0,25.784,0,28.262c0,2.478,0.953,4.665,2.856,6.567L135.899,167.877z"
			/>
		<path d="M267.808,117.053c-1.902-1.903-4.093-2.853-6.57-2.853c-2.471,0-4.661,0.95-6.563,2.853L142.466,229.257L30.262,117.05
			c-1.903-1.903-4.093-2.853-6.567-2.853c-2.475,0-4.665,0.95-6.567,2.853L2.856,131.327C0.95,133.23,0,135.42,0,137.893
			c0,2.474,0.953,4.665,2.856,6.57l133.043,133.046c1.902,1.903,4.093,2.854,6.567,2.854s4.661-0.951,6.562-2.854l133.054-133.046
			c1.902-1.903,2.847-4.093,2.847-6.565c0-2.474-0.951-4.661-2.847-6.567L267.808,117.053z"/>
            </symbol>
</defs>
</svg>
